<mxfile host="app.diagrams.net" agent="Mozilla/5.0 (X11; Linux x86_64) AppleWebKit/537.36 (KHTML, like Gecko) Chrome/135.0.0.0 Safari/537.36" version="26.0.6">
  <diagram name="Page-1" id="t4YRk-R4ULyduYrHj1In">
    <mxGraphModel dx="1362" dy="794" grid="1" gridSize="10" guides="1" tooltips="1" connect="1" arrows="1" fold="1" page="1" pageScale="1" pageWidth="850" pageHeight="1100" math="0" shadow="0">
      <root>
        <mxCell id="0" />
        <mxCell id="1" parent="0" />
        <mxCell id="XVhiCIZx62M7eBXoCvYs-4" value="" style="edgeStyle=orthogonalEdgeStyle;rounded=0;orthogonalLoop=1;jettySize=auto;html=1;exitX=1;exitY=0.5;exitDx=0;exitDy=0;" edge="1" parent="1" source="XVhiCIZx62M7eBXoCvYs-14" target="XVhiCIZx62M7eBXoCvYs-3">
          <mxGeometry relative="1" as="geometry">
            <mxPoint x="180" y="335" as="sourcePoint" />
          </mxGeometry>
        </mxCell>
        <mxCell id="XVhiCIZx62M7eBXoCvYs-6" value="" style="edgeStyle=orthogonalEdgeStyle;rounded=0;orthogonalLoop=1;jettySize=auto;html=1;" edge="1" parent="1" source="XVhiCIZx62M7eBXoCvYs-3" target="XVhiCIZx62M7eBXoCvYs-5">
          <mxGeometry relative="1" as="geometry" />
        </mxCell>
        <mxCell id="XVhiCIZx62M7eBXoCvYs-3" value="Transmit" style="whiteSpace=wrap;html=1;" vertex="1" parent="1">
          <mxGeometry x="250" y="305" width="120" height="60" as="geometry" />
        </mxCell>
        <mxCell id="XVhiCIZx62M7eBXoCvYs-8" value="" style="edgeStyle=orthogonalEdgeStyle;rounded=0;orthogonalLoop=1;jettySize=auto;html=1;" edge="1" parent="1" source="XVhiCIZx62M7eBXoCvYs-5" target="XVhiCIZx62M7eBXoCvYs-7">
          <mxGeometry relative="1" as="geometry" />
        </mxCell>
        <mxCell id="XVhiCIZx62M7eBXoCvYs-5" value="Decode" style="whiteSpace=wrap;html=1;" vertex="1" parent="1">
          <mxGeometry x="450" y="305" width="120" height="60" as="geometry" />
        </mxCell>
        <mxCell id="XVhiCIZx62M7eBXoCvYs-13" style="edgeStyle=orthogonalEdgeStyle;rounded=0;orthogonalLoop=1;jettySize=auto;html=1;entryX=0.5;entryY=0;entryDx=0;entryDy=0;" edge="1" parent="1" source="XVhiCIZx62M7eBXoCvYs-7" target="XVhiCIZx62M7eBXoCvYs-12">
          <mxGeometry relative="1" as="geometry" />
        </mxCell>
        <mxCell id="XVhiCIZx62M7eBXoCvYs-7" value="Assign" style="whiteSpace=wrap;html=1;" vertex="1" parent="1">
          <mxGeometry x="650" y="305" width="120" height="60" as="geometry" />
        </mxCell>
        <mxCell id="XVhiCIZx62M7eBXoCvYs-11" style="edgeStyle=orthogonalEdgeStyle;rounded=0;orthogonalLoop=1;jettySize=auto;html=1;" edge="1" parent="1" source="XVhiCIZx62M7eBXoCvYs-10" target="XVhiCIZx62M7eBXoCvYs-7">
          <mxGeometry relative="1" as="geometry" />
        </mxCell>
        <mxCell id="XVhiCIZx62M7eBXoCvYs-10" value="Config API" style="whiteSpace=wrap;html=1;" vertex="1" parent="1">
          <mxGeometry x="650" y="180" width="120" height="60" as="geometry" />
        </mxCell>
        <mxCell id="XVhiCIZx62M7eBXoCvYs-12" value="Store" style="whiteSpace=wrap;html=1;" vertex="1" parent="1">
          <mxGeometry x="650" y="430" width="120" height="60" as="geometry" />
        </mxCell>
        <mxCell id="XVhiCIZx62M7eBXoCvYs-14" value="Combine &amp;amp; Encode" style="whiteSpace=wrap;html=1;" vertex="1" parent="1">
          <mxGeometry x="60" y="305" width="120" height="60" as="geometry" />
        </mxCell>
      </root>
    </mxGraphModel>
  </diagram>
</mxfile>
